<?xml version="1.0" encoding="UTF-8" standalone="no"?>
<svg
   xmlns:dc="http://purl.org/dc/elements/1.1/"
   xmlns:cc="http://creativecommons.org/ns#"
   xmlns:rdf="http://www.w3.org/1999/02/22-rdf-syntax-ns#"
   xmlns:svg="http://www.w3.org/2000/svg"
   xmlns="http://www.w3.org/2000/svg"
   xmlns:sodipodi="http://sodipodi.sourceforge.net/DTD/sodipodi-0.dtd"
   xmlns:inkscape="http://www.inkscape.org/namespaces/inkscape"
   inkscape:version="1.0 (1.0+r72)"
   height="16"
   width="16"
   sodipodi:docname="icon-gitlab.svg"
   id="svg4"
   version="1.1"
   viewBox="0 0 16 16">
  <metadata
     id="metadata10">
    <rdf:RDF>
      <cc:Work
         rdf:about="">
        <dc:format>image/svg+xml</dc:format>
        <dc:type
           rdf:resource="http://purl.org/dc/dcmitype/StillImage" />
        <dc:title></dc:title>
      </cc:Work>
    </rdf:RDF>
  </metadata>
  <defs
     id="defs8" />
  <sodipodi:namedview
     inkscape:current-layer="svg4"
     inkscape:window-maximized="0"
     inkscape:window-y="619"
     inkscape:window-x="2238"
     inkscape:cy="7.2664568"
     inkscape:cx="8.7291892"
     inkscape:zoom="25.94198"
     showgrid="false"
     id="namedview6"
     inkscape:window-height="770"
     inkscape:window-width="1382"
     inkscape:pageshadow="2"
     inkscape:pageopacity="0"
     guidetolerance="10"
     gridtolerance="10"
     objecttolerance="10"
     borderopacity="1"
     bordercolor="#666666"
     pagecolor="#ffffff" />
  <path
     style="fill:#828282;stroke-width:0.999996"
     id="path2"
     d="M 15.952502,8.8897429 15.113268,6.3111537 a 0.36439156,0.36439156 0 0 0 -0.0203,-0.069387 L 13.409313,1.0590999 A 0.66930988,0.66930988 0 0 0 12.770211,0.60266736 0.65798166,0.65798166 0 0 0 12.138662,1.0628768 L 10.533829,6.0015149 H 5.4686922 L 3.8614988,1.0628768 A 0.65798166,0.65798166 0 0 0 3.232782,0.60266736 H 3.229002 A 0.67119791,0.67119791 0 0 0 2.5917984,1.0633488 L 0.90672253,6.252152 c 0,0.00473 -0.00377,0.00849 -0.00519,0.013214 L 0.04719251,8.8902124 A 0.95770785,0.95770785 0 0 0 0.39506278,9.962147 l 7.38129282,5.363446 a 0.37760782,0.37760782 0 0 0 0.4460486,-0.0023 L 15.605109,9.9621322 a 0.95723583,0.95723583 0 0 0 0.3474,-1.0724065 M 4.9192797,6.7595555 6.97677,13.092039 2.0376598,6.7595555 m 6.9881057,6.3338985 1.9730005,-6.0709891 0.08496,-0.2629094 h 2.88398 L 9.4991918,12.484089 M 12.776826,1.5490396 14.222591,6.0015076 H 11.328702 M 10.288863,6.7567229 8.8553702,11.168127 8.0000871,13.795334 5.7146164,6.7567229 M 3.2257086,1.5490396 4.6743057,6.0015076 H 1.7823027 M 0.83922724,9.3513605 A 0.20343623,0.20343623 0 0 1 0.7655932,9.1233799 L 1.3999742,7.1739797 6.0525756,13.138768 M 15.16142,9.3513605 9.9476013,13.137351 l 0.01746,-0.02265 4.6351367,-5.9407143 0.634381,1.9484557 a 0.20343623,0.20343623 0 0 1 -0.07317,0.2284527" />
</svg>
